<svg width="132" height="40" viewBox="0 0 132 40" fill="none" xmlns="http://www.w3.org/2000/svg">
<path d="M23.1287 27.2242C22.3752 27.2242 21.6863 26.7195 21.4136 25.9671L17.165 14.2424C16.4162 12.1885 14.5346 10.8076 12.4774 10.8076C10.4201 10.8076 8.53855 12.1885 7.79424 14.2424L3.5458 25.9671C3.27309 26.7195 2.58418 27.2242 1.83072 27.2242H0V28.511H11.5943C12.8379 28.511 13.9799 27.6746 14.4329 26.4324L15.6441 23.0867C15.9214 22.3244 16.5965 21.8295 17.3592 21.8295C18.1221 21.8295 18.8016 22.3344 19.0743 23.0867L20.2856 26.4324C20.734 27.6746 21.8759 28.511 23.1241 28.511H24.9825V27.2242H23.1241H23.1287ZM4.24386 27.2242C4.41491 26.9867 4.56283 26.7195 4.66449 26.4324L8.91305 14.7077C9.47704 13.1438 10.9101 12.0944 12.4774 12.0944C14.0446 12.0944 15.4731 13.1438 16.0416 14.7077L16.5271 16.0489C16.0278 15.8113 15.4824 15.6728 14.9183 15.6728C13.2402 15.6728 11.7654 16.7567 11.1551 18.4294L8.42761 25.9621C8.15489 26.7145 7.46612 27.2193 6.71253 27.2193H4.24386V27.2242ZM14.5253 22.6214L13.3141 25.9671C13.0414 26.7195 12.3525 27.2242 11.599 27.2242H9.13036C9.30142 26.9867 9.44934 26.7195 9.551 26.4324L12.2832 18.8997C12.7086 17.7217 13.7487 16.9645 14.923 16.9645C16.0972 16.9645 17.1466 17.7415 17.5627 18.8997L18.2052 20.6765C17.9325 20.5923 17.6505 20.5427 17.3592 20.5427C16.0925 20.5427 14.9784 21.3594 14.5207 22.6214H14.5253Z" fill="white"/>
<path d="M34.5153 28.511L28.5146 11.9756H30.8307L35.6617 25.3484L40.3401 11.9756H42.6332L36.8082 28.511H34.5153Z" fill="white"/>
<path d="M41.8428 24.9674C41.8428 22.0868 44.4918 21.5177 46.8079 21.2356C48.5969 21.0476 50.0532 21.0228 50.0532 20.0329C50.0532 18.5927 48.9483 17.578 47.2933 17.578C45.6382 17.578 44.4039 18.5482 44.2283 19.9884H42.111C42.3328 17.4593 44.4733 15.6875 47.3396 15.6875C50.2057 15.6875 52.1289 17.5286 52.1289 20.1765V26.1057C52.1289 26.5065 52.3277 26.6945 52.7252 26.6945H53.3632V28.511H52.2583C51.024 28.511 50.3398 27.9418 50.2704 26.8579C50.2473 26.7392 50.2243 26.5956 50.2243 26.4571C49.5401 27.8725 48.2364 28.7238 46.23 28.7238C43.5579 28.7238 41.815 27.2835 41.8381 24.9674H41.8428ZM50.0532 23.5964V21.9185C49.5909 22.651 48.3566 22.7946 46.9882 22.9579C45.444 23.146 43.9647 23.3836 43.9647 24.8733C43.9647 26.1007 44.9818 26.8579 46.5906 26.8579C48.62 26.8579 50.0532 25.5117 50.0532 23.5964Z" fill="white"/>
<path d="M54.8604 28.5111V15.9896H56.557L56.802 18.3998C57.551 16.7716 58.9194 15.8955 60.861 15.8955H61.2817V18.1177H60.861C58.4109 18.1177 56.9778 19.6074 56.9778 22.087V28.5111H54.8604Z" fill="white"/>
<path d="M62.3867 12.4457C62.3867 11.55 63.0247 10.8867 63.8661 10.8867C64.7075 10.8867 65.3454 11.55 65.3454 12.4457C65.3454 13.3416 64.7259 14.0543 63.8661 14.0543C63.0062 14.0543 62.3867 13.3466 62.3867 12.4457ZM62.8074 28.5109V15.9895H64.9248V28.5109H62.8074Z" fill="white"/>
<path d="M66.7792 24.9674C66.7792 22.0868 69.4282 21.5177 71.7443 21.2356C73.5334 21.0476 74.9896 21.0228 74.9896 20.0329C74.9896 18.5927 73.8847 17.578 72.2297 17.578C70.5747 17.578 69.3404 18.5482 69.1647 19.9884H67.0474C67.2692 17.4593 69.4097 15.6875 72.276 15.6875C75.1421 15.6875 77.0654 17.5286 77.0654 20.1765V26.1057C77.0654 26.5065 77.2641 26.6945 77.6618 26.6945H78.2997V28.511H77.1947C75.9604 28.511 75.2762 27.9418 75.207 26.8579C75.1838 26.7392 75.1607 26.5956 75.1607 26.4571C74.4765 27.8725 73.1728 28.7238 71.1664 28.7238C68.4943 28.7238 66.7515 27.2835 66.7746 24.9674H66.7792ZM74.9896 23.5964V21.9185C74.5273 22.651 73.293 22.7946 71.9246 22.9579C70.3806 23.146 68.9012 23.3836 68.9012 24.8733C68.9012 26.1007 69.9182 26.8579 71.5271 26.8579C73.5566 26.8579 74.9896 25.5117 74.9896 23.5964Z" fill="white"/>
<path d="M84.3365 28.511C81.9556 28.511 80.6936 27.2341 80.6936 24.8485V17.9048H78.5762V15.9895H80.6936V11.9756H82.8109V15.9895H85.9222V17.9048H82.8109V24.7792C82.8109 25.9622 83.361 26.5957 84.4012 26.5957H85.7049V28.511H84.3365Z" fill="white"/>
<path d="M87.1572 12.4457C87.1572 11.55 87.7952 10.8867 88.6366 10.8867C89.478 10.8867 90.1159 11.55 90.1159 12.4457C90.1159 13.3416 89.4964 14.0543 88.6366 14.0543C87.7767 14.0543 87.1572 13.3466 87.1572 12.4457ZM87.5779 28.5109V15.9895H89.6953V28.5109H87.5779Z" fill="white"/>
<path d="M91.5254 22.1314C91.5254 17.9741 94.0866 15.6826 97.3504 15.6826C101.1 15.6826 103.175 18.5433 103.175 22.1314C103.175 26.4076 100.702 28.7931 97.3504 28.7931C93.578 28.7931 91.5254 25.9325 91.5254 22.1314ZM101.012 22.1314C101.012 19.4391 99.5786 17.6178 97.3504 17.6178C95.1222 17.6178 93.6891 19.4341 93.6891 22.1314C93.6891 25.1801 95.2978 26.858 97.3504 26.858C99.6896 26.858 101.012 24.7793 101.012 22.1314Z" fill="white"/>
<path d="M105.011 28.511V15.9895H106.712L106.911 17.8801C107.66 16.5587 109.185 15.6826 110.928 15.6826C113.42 15.6826 115.097 17.4296 115.097 20.2161V28.5061H112.958V20.3101C112.958 18.7017 111.987 17.6623 110.332 17.6623C108.39 17.6623 107.156 19.1025 107.133 20.9238V28.5061H105.015L105.011 28.511Z" fill="white"/>
<path d="M116.795 24.9674C116.795 22.0868 119.443 21.5177 121.759 21.2356C123.549 21.0476 125.005 21.0228 125.005 20.0329C125.005 18.5927 123.899 17.578 122.245 17.578C120.589 17.578 119.356 18.5482 119.179 19.9884H117.062C117.285 17.4593 119.425 15.6875 122.291 15.6875C125.158 15.6875 127.081 17.5286 127.081 20.1765V26.1057C127.081 26.5065 127.28 26.6945 127.677 26.6945H128.315V28.511H127.21C125.976 28.511 125.291 27.9418 125.222 26.8579C125.199 26.7392 125.176 26.5956 125.176 26.4571C124.491 27.8725 123.188 28.7238 121.181 28.7238C118.514 28.7238 116.767 27.2835 116.789 24.9674H116.795ZM125.005 23.5964V21.9185C124.542 22.651 123.303 22.7946 121.939 22.9579C120.396 23.146 118.917 23.3836 118.917 24.8733C118.917 26.1007 119.933 26.8579 121.542 26.8579C123.571 26.8579 125.005 25.5117 125.005 23.5964Z" fill="white"/>
<path d="M129.859 28.5112V10.793H132V28.5112H129.859Z" fill="white"/>
</svg>
