<svg width="129" height="40" viewBox="0 0 129 40" fill="none" xmlns="http://www.w3.org/2000/svg">
<path d="M32.9865 23.7628L33.8634 25.8667C33.045 26.6251 32.1447 27.2123 31.1704 27.6206C30.1922 28.029 29.1672 28.2351 28.0954 28.2351C26.7859 28.2351 25.6012 27.9395 24.5372 27.3445C23.4733 26.7495 22.6431 25.9328 22.0469 24.8906C21.4506 23.8484 21.1544 22.7051 21.1544 21.4567C21.1544 20.2084 21.4584 19.0417 22.0624 18.0073C22.6665 16.9767 23.4927 16.1562 24.5372 15.5534C25.5817 14.9506 26.7392 14.6473 28.0097 14.6473C29.0814 14.6473 30.0636 14.8728 30.9521 15.3201C31.8407 15.7673 32.5734 16.4128 33.1502 17.2489C33.727 18.0889 34.0816 19.0612 34.2181 20.1734L23.9058 23.5062C24.2566 24.3034 24.8022 24.9373 25.5466 25.4039C26.2871 25.8706 27.1484 26.1039 28.1227 26.1039C29.9388 26.1039 31.5601 25.3262 32.9865 23.7667V23.7628ZM25.7103 17.3773C25.0166 17.7973 24.471 18.3651 24.0695 19.0884C23.6681 19.8078 23.4694 20.609 23.4694 21.484L31.4939 18.8823C31.221 18.2212 30.7729 17.7001 30.1454 17.3189C29.5218 16.9378 28.8086 16.7473 28.0058 16.7473C27.1679 16.7473 26.4001 16.9573 25.7064 17.3773H25.7103Z" fill="white"/>
<path d="M44.4137 27.9121L40.9295 22.8255L37.4454 27.9121H34.5458L39.4681 21.1299L34.9862 14.9621H37.8585L40.9334 19.4616L44.0396 14.9621H46.8807L42.43 21.1299L47.3211 27.9121H44.4137Z" fill="white"/>
<path d="M52.2038 17.1286V23.938C52.2038 24.5797 52.3636 25.0736 52.6871 25.4158C53.0106 25.758 53.4627 25.9292 54.0512 25.9292C54.3434 25.9292 54.663 25.8903 55.0021 25.8125C55.345 25.7347 55.6412 25.6375 55.8946 25.5208V27.7142C55.6217 27.8308 55.2905 27.9319 54.9008 28.0214C54.511 28.1108 54.0979 28.1536 53.6692 28.1536C52.4572 28.1536 51.5023 27.7997 50.7969 27.088C50.0915 26.3764 49.7408 25.3964 49.7408 24.1519V17.1364H47.7765L48.1857 14.9742H49.7369V12.1975L52.196 10.8247V14.9742H55.8868V17.1364H52.196L52.2038 17.1286Z" fill="white"/>
<path d="M68.6935 23.7628L69.5703 25.8667C68.7519 26.6251 67.8516 27.2123 66.8773 27.6206C65.8991 28.029 64.8741 28.2351 63.8024 28.2351C62.4929 28.2351 61.3081 27.9395 60.2441 27.3445C59.1802 26.7495 58.3501 25.9328 57.7538 24.8906C57.1575 23.8484 56.8613 22.7051 56.8613 21.4567C56.8613 20.2084 57.1653 19.0417 57.7694 18.0073C58.3734 16.9767 59.1997 16.1562 60.2441 15.5534C61.2886 14.9506 62.4461 14.6473 63.7166 14.6473C64.7884 14.6473 65.7705 14.8728 66.6591 15.3201C67.5476 15.7673 68.2803 16.4128 68.8571 17.2489C69.4339 18.0889 69.7886 19.0612 69.925 20.1734L59.6128 23.5062C59.9635 24.3034 60.5092 24.9373 61.2535 25.4039C61.994 25.8706 62.8553 26.1039 63.8296 26.1039C65.6458 26.1039 67.267 25.3262 68.6935 23.7667V23.7628ZM61.4133 17.3773C60.7196 17.7973 60.174 18.3651 59.7726 19.0884C59.3711 19.8078 59.1724 20.609 59.1724 21.484L67.1969 18.8823C66.9241 18.2212 66.4759 17.7001 65.8484 17.3189C65.2249 16.9378 64.5117 16.7473 63.7088 16.7473C62.8709 16.7473 62.1031 16.9573 61.4094 17.3773H61.4133Z" fill="white"/>
<path d="M80.8762 15.2889C81.6362 15.7167 82.2325 16.3467 82.6612 17.1751C83.0899 18.0034 83.3042 18.9717 83.3042 20.0839V27.9162H80.845V20.3173C80.845 19.2245 80.5605 18.3806 79.9954 17.7739C79.4303 17.1712 78.6664 16.8678 77.7116 16.8678C77.0491 16.8678 76.4528 17.0195 75.9267 17.3228C75.4005 17.6262 74.9874 18.0578 74.6951 18.6217C74.4028 19.1856 74.2547 19.8389 74.2547 20.5817V27.9162H71.7955V15.1451L74.1378 14.7639V16.4867C74.625 15.9034 75.2213 15.4484 75.9228 15.1295C76.6243 14.8067 77.3959 14.6473 78.2377 14.6473C79.2355 14.6473 80.1123 14.8612 80.8723 15.2889H80.8762Z" fill="white"/>
<path d="M98.8622 10V27.9122H96.4614V26.0417C95.8963 26.7222 95.2182 27.255 94.4271 27.6361C93.6359 28.0172 92.7629 28.2078 91.8042 28.2078C90.6116 28.2078 89.5087 27.9122 88.4954 27.3172C87.4782 26.7222 86.6754 25.9056 86.0791 24.8633C85.4828 23.8211 85.1866 22.6778 85.1866 21.4294C85.1866 20.1811 85.4828 19.0417 86.0791 18.0111C86.6754 16.9806 87.4782 16.16 88.4954 15.5572C89.5087 14.9544 90.6155 14.6511 91.8042 14.6511C92.7395 14.6511 93.6008 14.8378 94.3803 15.2072C95.1597 15.5767 95.834 16.0939 96.403 16.755V10.4161L98.8622 10.0078V10ZM94.353 25.4C95.035 24.9917 95.5767 24.4356 95.9782 23.7356C96.3796 23.0356 96.5783 22.2656 96.5783 21.4256C96.5783 20.5856 96.3796 19.8233 95.9782 19.1311C95.5767 18.4389 95.035 17.8906 94.353 17.4783C93.671 17.07 92.9188 16.8639 92.0965 16.8639C91.2741 16.8639 90.5259 17.07 89.8399 17.4783C89.1579 17.8867 88.6201 18.4389 88.2304 19.1311C87.8407 19.8233 87.6458 20.5894 87.6458 21.4256C87.6458 22.2617 87.8407 23.0317 88.2304 23.7356C88.6201 24.4356 89.1579 24.9917 89.8399 25.4C90.522 25.8083 91.2741 26.0144 92.0965 26.0144C92.9188 26.0144 93.6671 25.8083 94.353 25.4Z" fill="white"/>
<path d="M112.366 23.7628L113.243 25.8667C112.425 26.6251 111.525 27.2123 110.55 27.6206C109.572 28.029 108.547 28.2351 107.475 28.2351C106.166 28.2351 104.981 27.9395 103.917 27.3445C102.853 26.7495 102.023 25.9328 101.427 24.8906C100.83 23.8484 100.534 22.7051 100.534 21.4567C100.534 20.2084 100.838 19.0417 101.442 18.0073C102.046 16.9767 102.873 16.1562 103.917 15.5534C104.961 14.9506 106.119 14.6473 107.389 14.6473C108.461 14.6473 109.443 14.8728 110.332 15.3201C111.221 15.7673 111.953 16.4128 112.53 17.2489C113.107 18.0889 113.461 19.0612 113.598 20.1734L103.286 23.5062C103.636 24.3034 104.182 24.9373 104.926 25.4039C105.667 25.8706 106.528 26.1039 107.503 26.1039C109.319 26.1039 110.94 25.3262 112.366 23.7667V23.7628ZM105.086 17.3773C104.392 17.7973 103.847 18.3651 103.445 19.0884C103.044 19.8078 102.845 20.609 102.845 21.484L110.87 18.8823C110.597 18.2212 110.149 17.7001 109.521 17.3189C108.898 16.9378 108.185 16.7473 107.382 16.7473C106.544 16.7473 105.776 16.9573 105.082 17.3773H105.086Z" fill="white"/>
<path d="M128.505 10V27.9122H126.105V26.0417C125.54 26.7222 124.861 27.255 124.07 27.6361C123.279 28.0172 122.406 28.2078 121.447 28.2078C120.255 28.2078 119.152 27.9122 118.139 27.3172C117.121 26.7222 116.319 25.9056 115.722 24.8633C115.126 23.8211 114.83 22.6778 114.83 21.4294C114.83 20.1811 115.126 19.0417 115.722 18.0111C116.319 16.9806 117.121 16.16 118.139 15.5572C119.152 14.9544 120.259 14.6511 121.447 14.6511C122.383 14.6511 123.244 14.8378 124.023 15.2072C124.803 15.5767 125.477 16.0939 126.046 16.755V10.4161L128.505 10.0078V10ZM123.992 25.4C124.674 24.9917 125.216 24.4356 125.617 23.7356C126.019 23.0356 126.218 22.2656 126.218 21.4256C126.218 20.5856 126.019 19.8233 125.617 19.1311C125.216 18.4389 124.674 17.8906 123.992 17.4783C123.31 17.07 122.558 16.8639 121.736 16.8639C120.913 16.8639 120.165 17.07 119.479 17.4783C118.797 17.8867 118.259 18.4389 117.87 19.1311C117.48 19.8233 117.285 20.5894 117.285 21.4256C117.285 22.2617 117.48 23.0317 117.87 23.7356C118.259 24.4356 118.797 24.9917 119.479 25.4C120.161 25.8083 120.913 26.0144 121.736 26.0144C122.558 26.0144 123.306 25.8083 123.992 25.4Z" fill="white"/>
<path d="M9.22097 15.429C5.7407 15.429 2.54103 14.239 0 12.244C1.99541 14.7795 3.19187 17.9723 3.19187 21.4451C3.19187 24.9179 1.99931 28.1106 0 30.6462C2.54103 28.6551 5.7407 27.4612 9.22097 27.4612C12.7012 27.4612 15.9009 28.6512 18.4419 30.6462C16.4465 28.1106 15.2501 24.9179 15.2501 21.4451C15.2501 17.9723 16.4426 14.7795 18.4419 12.244C15.9048 14.2351 12.7012 15.429 9.22097 15.429Z" fill="white"/>
</svg>
